<svg version="1.1" id="Layer_1" xmlns="http://www.w3.org/2000/svg" xmlns:xlink="http://www.w3.org/1999/xlink" x="0px" y="0px"
	 width="100%" viewBox="0 0 512 512" enable-background="new 0 0 512 512" xml:space="preserve">
<path fill="#000000" opacity="1.000000" stroke="none" 
	d="
M513.000000,373.545898 
	C506.486908,387.503815 494.059753,393.835266 481.275421,399.209473 
	C449.923889,412.388885 416.825348,419.028656 383.410919,424.371216 
	C345.369293,430.453705 307.052216,433.188354 268.578857,433.803894 
	C243.925797,434.198364 219.303116,433.248779 194.688797,431.528290 
	C168.941711,429.728668 143.352905,426.812836 117.956299,422.322113 
	C88.930351,417.189636 60.206501,410.814331 32.883083,399.341736 
	C26.731236,396.758698 20.799137,393.715820 15.283092,389.931274 
	C9.431059,385.916260 4.412413,381.128876 1.198751,374.271942 
	C1.000000,370.638702 1.000000,367.277435 1.000000,363.458069 
	C4.856841,351.477509 6.853997,339.497101 9.591450,327.704163 
	C18.681568,288.544006 27.962330,249.421097 36.351959,210.109344 
	C39.041348,197.507538 46.206417,190.351624 57.255177,185.579437 
	C63.860725,182.726349 70.785011,180.939011 77.634789,178.901215 
	C80.305336,178.106735 81.841087,176.737396 82.623093,174.008102 
	C89.136757,151.274780 104.349625,137.606430 127.055275,132.081528 
	C131.047775,131.110046 135.296127,130.934479 139.431549,130.891159 
	C142.442886,130.859619 144.240646,129.919662 145.864304,127.298447 
	C159.127319,105.886848 184.876938,95.709320 209.505432,102.131866 
	C212.707764,102.966957 214.640335,102.349678 216.779984,99.763641 
	C238.586563,73.407684 275.581940,73.500053 297.330505,99.937042 
	C299.315582,102.350075 301.185852,102.985359 304.206848,102.207825 
	C329.257294,95.760414 353.932343,105.400627 367.944214,127.079277 
	C369.526093,129.526672 371.175323,130.817230 374.302094,130.862411 
	C403.095032,131.278351 424.846771,148.966370 431.487610,174.247284 
	C432.131317,176.697968 433.453339,178.089203 436.074127,178.846954 
	C445.014557,181.431885 454.034729,183.830551 462.276733,188.404602 
	C469.769409,192.562790 474.837677,198.201202 476.804871,206.946335 
	C488.214264,257.667297 499.892609,308.327789 511.491455,359.006073 
	C511.824982,360.463287 512.286560,361.891205 512.844238,363.666382 
	C513.000000,367.030609 513.000000,370.061188 513.000000,373.545898 
M179.816772,411.619080 
	C194.588852,412.621490 209.348358,414.192871 224.135376,414.519958 
	C268.939148,415.510956 313.674683,414.672760 358.229828,408.875824 
	C388.945435,404.879517 419.362946,399.629425 449.076416,390.749268 
	C462.989105,386.591278 476.616333,381.712646 488.984589,373.888947 
	C492.539429,371.640259 494.750946,369.242157 493.560303,364.161163 
	C484.079742,323.703308 474.950012,283.163361 465.612946,242.671600 
	C464.396057,237.394363 463.826904,231.893356 461.211304,226.642761 
	C457.300568,228.198303 453.658997,229.776276 449.929779,231.109100 
	C425.446777,239.859283 399.807098,243.057877 374.232666,246.136444 
	C344.311401,249.738266 314.198334,251.237961 284.067535,251.888809 
	C230.897858,253.037323 177.859207,251.164505 125.079643,244.202301 
	C104.121315,241.437668 83.307434,237.956924 63.248833,230.921738 
	C59.710529,229.680756 56.531483,227.393402 52.741539,226.932083 
	C51.111565,229.102341 50.941467,231.503036 50.432934,233.723160 
	C41.005806,274.879974 31.657522,316.054840 22.265617,357.219727 
	C19.127386,370.974640 18.976713,371.192657 31.819719,377.804230 
	C56.207417,390.358917 82.727455,396.208099 109.326302,401.615753 
	C132.313522,406.289154 155.583679,409.123840 179.816772,411.619080 
M406.608978,212.092087 
	C416.409607,198.820358 417.497070,184.729843 409.585907,170.391861 
	C401.718811,156.133789 389.279724,148.655991 372.914612,150.398804 
	C362.938080,151.461243 357.578583,148.594604 353.160553,139.287552 
	C344.689911,121.443207 321.916718,114.250023 303.332214,122.155006 
	C293.765350,126.224304 290.986389,125.118179 285.658966,116.078972 
	C279.158997,105.050217 269.555206,99.057472 256.500122,99.172974 
	C243.791687,99.285416 234.623138,105.442650 228.439575,116.145737 
	C223.331207,124.987778 220.311432,126.109665 210.677261,122.181351 
	C198.907028,117.382072 187.266998,117.761635 176.014496,123.858246 
	C168.121201,128.134827 162.637741,134.641251 158.853882,142.752274 
	C155.415985,150.121719 153.652283,151.004745 145.649414,150.405945 
	C144.320679,150.306519 142.982895,150.323685 141.655350,150.213730 
	C124.937180,148.829330 110.487617,157.119751 103.133621,172.330551 
	C96.137268,186.801620 98.929344,203.954834 110.332352,215.797928 
	C114.633392,220.264999 119.233192,224.669144 125.670830,225.508087 
	C146.446533,228.215652 167.304108,230.540573 188.215485,231.449585 
	C216.311691,232.670944 244.421326,233.648392 272.591125,233.126343 
	C308.230133,232.465897 343.731506,230.485199 379.179138,226.768127 
	C390.363861,225.595276 399.920685,222.634171 406.608978,212.092087 
M59.573849,208.336639 
	C68.074982,213.455093 77.454857,215.974228 87.965919,218.317001 
	C84.580513,211.260376 82.450668,204.732391 80.897873,197.803909 
	C73.552704,199.248428 67.052094,201.634872 60.880341,204.944229 
	C59.779209,205.534637 58.216007,206.001328 59.573849,208.336639 
M432.295258,200.968628 
	C431.293121,206.984589 428.631683,212.441467 425.883789,218.498947 
	C436.546021,215.655121 446.719971,213.625000 456.058441,207.107361 
	C449.090973,202.013367 441.829651,199.869339 434.450043,198.060455 
	C432.963440,197.696091 432.523438,198.992905 432.295258,200.968628 
z"/>
<path fill="#000000" opacity="1.000000" stroke="none" 
	d="
M406.415771,309.030334 
	C402.327057,324.525085 402.323761,325.308502 406.210754,341.039520 
	C412.247650,365.471100 394.746490,389.803833 369.765961,392.471344 
	C348.512817,394.740906 330.284821,380.980194 325.171814,363.268311 
	C324.016541,359.266388 322.073029,358.162750 318.103302,358.174744 
	C277.447998,358.297729 236.791885,358.313171 196.136871,358.145538 
	C191.655411,358.127045 189.983902,359.644012 188.577011,363.867371 
	C183.347641,379.565521 172.235260,389.394073 155.979248,392.097565 
	C138.544327,394.997070 123.911560,389.073334 113.995346,374.223663 
	C104.386566,359.834412 103.963417,344.551270 112.620903,329.408112 
	C114.243240,326.570435 114.311302,324.665253 112.659256,321.795135 
	C103.947784,306.660675 104.415932,291.351166 114.023262,276.995117 
	C123.831436,262.338989 138.440689,256.301941 155.643234,259.055054 
	C172.243835,261.711823 183.658752,271.774200 188.834946,287.963745 
	C190.129089,292.011383 191.951950,293.047791 195.861481,293.037109 
	C236.350235,292.926270 276.839783,292.888550 317.327972,293.072845 
	C321.985809,293.094025 323.965637,291.630798 325.408844,287.202271 
	C332.048187,266.828857 353.406616,254.598755 373.543823,259.233917 
	C395.531494,264.295074 409.641296,283.781921 407.159210,305.692688 
	C407.047699,306.677124 406.715973,307.636627 406.415771,309.030334 
M342.245209,352.453369 
	C342.913971,362.456451 349.966553,371.043762 359.398682,373.339630 
	C369.506104,375.799866 379.769104,371.491455 385.209900,362.504089 
	C390.398132,353.933868 389.460419,343.179504 382.860992,335.566101 
	C375.239899,326.774017 375.191589,324.556274 382.437561,316.135864 
	C389.585632,307.829224 390.559662,297.498260 385.054291,288.381256 
	C380.066040,280.120575 369.771088,275.607483 360.560608,277.643738 
	C350.045410,279.968445 343.108734,288.069916 342.161896,299.131897 
	C341.280670,309.427399 338.300201,312.209137 327.974213,312.211182 
	C280.835724,312.220520 233.697220,312.216858 186.558731,312.200958 
	C175.598648,312.197266 172.686295,309.491882 171.777390,298.629730 
	C170.893524,288.066742 163.860703,280.016754 153.451981,277.653961 
	C144.212021,275.556427 134.141983,279.950775 128.955841,288.343445 
	C123.571533,297.056824 124.043869,308.321899 131.332458,315.600342 
	C139.222382,323.479309 137.573151,329.177551 131.345566,335.596069 
	C124.313080,342.844177 123.580292,353.790558 128.723557,362.420074 
	C134.118362,371.471680 144.319977,375.814636 154.462723,373.377533 
	C163.937897,371.100891 171.056870,362.541748 171.777969,352.559631 
	C172.537109,342.050629 175.134430,339.151855 185.569382,339.121796 
	C233.206940,338.984650 280.845337,338.989929 328.482880,339.125275 
	C338.640167,339.154114 340.716522,341.400970 342.245209,352.453369 
z"/>
</svg>