<svg version="1.1" id="Layer_1" xmlns="http://www.w3.org/2000/svg" xmlns:xlink="http://www.w3.org/1999/xlink" x="0px" y="0px"
	 width="100%" viewBox="0 0 736 736" enable-background="new 0 0 736 736" xml:space="preserve">
<path fill="#000000" opacity="1.000000" stroke="none" 
	d="
M568.459534,460.487183 
	C583.162292,471.177673 596.133606,483.142334 605.154602,498.672028 
	C612.740784,511.731415 617.499084,525.949402 619.325806,540.982910 
	C625.409973,591.053101 602.566772,627.178406 563.604187,655.243347 
	C543.926147,669.417725 521.988281,679.218994 498.503754,684.810181 
	C477.499939,689.810669 456.198059,693.402954 434.479797,694.604248 
	C420.392029,695.383484 406.415039,697.718628 392.215393,696.361267 
	C376.981323,694.905090 361.768127,693.366882 346.976624,689.226685 
	C334.031830,685.603394 325.255890,677.173767 320.415009,664.801392 
	C315.481506,652.192261 321.957581,642.450684 329.461334,633.443542 
	C338.483887,622.613159 351.093628,619.008240 364.508972,617.672119 
	C381.645142,615.965393 398.714233,618.800781 415.830414,618.643982 
	C448.991882,618.340271 481.604248,614.678406 512.543213,601.782593 
	C536.839783,591.655396 550.640442,572.923157 555.391174,547.412537 
	C557.062622,538.437317 554.258240,530.165161 548.322815,523.253235 
	C535.343506,508.138733 518.037476,500.905548 499.101624,496.775391 
	C496.561432,496.221344 495.581512,497.239563 495.184021,499.802551 
	C493.374054,511.473114 488.930634,522.305786 483.114868,532.417664 
	C472.047089,551.661072 455.074188,564.692993 435.852509,574.953979 
	C414.426514,586.391602 391.458405,591.819092 367.162231,591.290771 
	C363.354248,591.207947 361.138763,592.511902 359.181335,595.819031 
	C349.384216,612.371521 334.646484,620.674683 315.460358,620.967712 
	C308.652832,621.071655 301.852264,621.328247 295.082520,619.721863 
	C273.788513,614.668945 262.316864,596.718872 266.956726,575.291809 
	C267.443939,573.041992 268.308777,570.846497 267.528259,568.516968 
	C265.563171,567.567993 264.289856,569.034729 262.878052,569.693604 
	C244.059692,578.475769 214.651733,573.749756 200.739624,559.665771 
	C189.823318,548.614746 188.260284,532.330811 196.805969,519.345581 
	C200.034622,514.439575 203.856232,510.001465 208.106430,506.033081 
	C217.564194,497.202393 219.958954,485.511383 221.565247,473.574554 
	C222.226379,468.661407 221.513794,463.578857 221.810669,458.596283 
	C222.046524,454.637878 220.313690,452.684448 216.871338,451.013489 
	C189.812744,437.878601 166.635010,419.675110 147.320663,396.646362 
	C130.409042,376.482452 122.041138,353.045197 119.419632,326.882416 
	C116.209419,294.844177 121.323662,264.326904 134.647156,235.429977 
	C152.223953,197.308167 174.162125,161.887482 202.854706,130.828308 
	C216.570633,115.981064 229.940613,100.860565 247.220810,90.071693 
	C259.065674,82.676369 270.014496,73.787544 283.019135,68.274635 
	C290.143585,65.254440 297.611847,63.686348 305.223755,62.746910 
	C314.021179,61.661156 321.604736,64.194199 327.995728,70.509941 
	C340.614258,82.979935 351.184265,96.763748 355.674194,114.281990 
	C358.237915,124.284790 362.687317,130.645874 373.866272,134.002213 
	C398.580536,141.422333 420.916992,154.190414 441.266296,170.229294 
	C446.252197,174.159073 452.509918,173.413681 458.114960,173.472534 
	C480.141632,173.703812 501.711945,176.891190 522.148926,184.806091 
	C540.874878,192.058350 559.551880,199.951294 575.054749,213.390671 
	C586.599243,223.398560 589.087524,236.385254 587.881104,250.944763 
	C586.407227,268.731689 576.396118,282.606659 567.838135,297.191620 
	C557.065491,315.550812 543.217834,331.474609 528.919861,347.148621 
	C512.706177,364.922668 495.254547,381.254272 476.569733,396.357391 
	C472.975555,399.262604 468.662750,402.509033 467.204651,406.516144 
	C465.368408,411.562653 472.012451,413.577484 474.387421,417.348877 
	C477.663849,422.551727 481.385559,427.483765 484.400116,432.873108 
	C485.571167,434.966705 486.921539,436.994080 489.760010,436.554596 
	C502.482330,434.584900 514.544373,438.097839 526.554871,441.268768 
	C541.465149,445.205261 555.339478,451.654144 568.459534,460.487183 
M284.133331,307.551239 
	C279.530792,321.262451 277.873962,335.330048 278.093109,349.793274 
	C278.473816,374.918762 285.502136,397.720856 301.044830,417.542725 
	C314.651306,434.895355 332.275208,446.166382 354.447357,448.532654 
	C380.154083,451.276123 402.709229,442.819672 421.062469,425.100952 
	C457.524384,389.899597 468.144318,346.970825 455.205719,298.491699 
	C449.012360,275.285950 435.999542,255.826019 414.857147,243.374588 
	C384.826813,225.688751 355.281189,228.780060 327.096222,247.999481 
	C305.935699,262.428925 292.754547,282.938538 284.133331,307.551239 
M139.851822,248.304214 
	C130.779984,275.684418 126.882874,303.565918 131.328888,332.341614 
	C134.510223,352.932037 141.068558,372.028748 154.609772,388.298157 
	C166.185852,402.206482 189.838913,407.502411 206.147186,399.786865 
	C219.604263,393.420227 230.622650,384.098206 238.478378,371.555969 
	C263.760712,331.191010 270.449310,287.501831 259.933044,241.302277 
	C256.217255,224.978195 250.154984,209.320602 236.901260,197.873428 
	C228.488449,190.607315 219.385818,184.143982 207.625351,184.418671 
	C194.771896,184.718903 183.249161,189.174301 173.145096,197.258636 
	C156.657410,210.450546 147.213913,228.224625 139.851822,248.304214 
M494.872528,353.170929 
	C494.737732,355.764618 492.227356,358.314758 494.491180,360.996460 
	C496.754761,360.876923 497.963959,359.377869 499.342438,358.231934 
	C520.711914,340.467041 539.494324,320.341583 554.679504,297.004211 
	C563.546692,283.376617 573.141052,270.088745 575.116150,253.166611 
	C575.919861,246.280365 575.649841,245.607880 568.604065,246.373108 
	C544.242798,249.018967 523.208740,259.613739 503.599274,273.629547 
	C501.399017,275.202179 500.944824,277.043610 501.267822,279.616852 
	C502.052856,285.871307 502.899994,292.149719 503.107941,298.438812 
	C503.718018,316.890961 500.540009,334.832092 494.872528,353.170929 
z"/>
<path fill="#000000" opacity="1.000000" stroke="none" 
	d="
M352.422668,409.901794 
	C332.241455,401.063904 322.141266,384.744751 318.054779,364.537140 
	C312.351318,336.333893 318.657593,310.472504 336.871582,288.219513 
	C350.700470,271.324005 368.595947,262.100708 391.029663,266.747742 
	C409.687988,270.612701 421.489990,283.201508 428.442200,300.352020 
	C442.546570,335.146240 431.738525,377.985809 402.909454,400.853760 
	C388.025299,412.660217 371.233032,416.490723 352.422668,409.901794 
z"/>
<path fill="#000000" opacity="1.000000" stroke="none" 
	d="
M230.807251,334.671265 
	C226.242142,342.755920 220.698547,349.528748 213.737259,355.150940 
	C196.671158,368.934174 174.943420,365.957458 162.170242,348.175507 
	C155.067596,338.287720 151.366379,327.053131 150.185959,315.238586 
	C147.551544,288.871216 152.513977,264.168152 168.832870,242.591370 
	C173.686859,236.173416 179.638443,230.870926 187.020096,227.310394 
	C202.363800,219.909393 218.971588,223.769745 229.525986,237.146271 
	C237.865204,247.715271 241.827698,260.073792 243.043335,273.097076 
	C245.047989,294.573547 241.625458,315.238678 230.807251,334.671265 
z"/>
</svg>