<svg version="1.1" id="Layer_1" xmlns="http://www.w3.org/2000/svg" xmlns:xlink="http://www.w3.org/1999/xlink" x="0px" y="0px"
	 width="100%" viewBox="0 0 736 736" enable-background="new 0 0 736 736" xml:space="preserve">
<path fill="#000000" opacity="1.000000" stroke="none"
	d="
M189.517822,321.560608
	C200.482208,304.250854 213.569870,289.241943 228.417297,275.677063
	C231.700211,272.677704 233.908188,272.668304 237.240265,275.544403
	C251.363831,287.735077 263.243622,301.821564 273.252991,317.492340
	C275.388580,320.835846 277.180511,322.046173 281.215698,320.271118
	C289.102448,316.801788 297.688904,315.932587 306.168793,316.193054
	C311.751160,316.364532 314.345825,314.267792 316.685059,309.449768
	C326.817535,288.580505 343.818115,273.918915 362.072845,260.483154
	C364.738983,258.520874 366.633301,259.996460 368.730408,261.570160
	C384.972260,273.758148 396.550598,289.624481 405.305267,307.733612
	C406.029816,309.232361 406.872986,310.709686 407.334869,312.292206
	C408.362427,315.812592 410.704742,316.672638 414.140076,316.646301
	C457.275818,316.315521 492.104858,333.735413 519.660156,366.424438
	C521.987671,369.185608 523.626282,370.497070 526.737854,367.332062
	C543.566895,350.213959 546.994324,321.303497 534.473572,300.671021
	C520.595276,277.801514 498.410797,274.791260 478.847137,293.160950
	C474.353638,297.380219 470.198822,301.985413 465.506989,305.963501
	C452.035034,317.386108 434.044373,315.581299 424.223114,302.058319
	C418.794006,294.583008 418.473602,286.021088 420.241577,277.616516
	C427.739410,241.973709 463.006561,218.618759 499.185364,223.235352
	C542.669983,228.784195 579.665894,265.549377 585.673340,310.163574
	C591.080627,350.320282 578.193237,384.391357 543.902283,408.453033
	C541.014954,410.479095 541.191895,412.450226 542.019104,415.255981
	C546.758179,431.330841 548.678711,447.726868 548.446838,464.522064
	C547.780396,512.798340 520.568359,547.439331 473.686035,559.256287
	C452.688141,564.548950 431.232727,565.749634 409.767487,565.991089
	C373.609436,566.397888 337.436127,566.541809 301.283356,565.944336
	C276.520020,565.535156 251.619354,565.542114 227.205750,560.289734
	C209.064545,556.386780 191.968567,550.111145 178.576675,536.465393
	C161.968781,519.542786 153.705139,498.704590 151.794479,475.513580
	C148.045746,430.012787 157.361694,386.809082 176.467438,345.571259
	C180.248489,337.410248 184.471130,329.461243 189.517822,321.560608
M330.370453,485.989319
	C330.982941,487.704437 331.455017,489.486816 332.237244,491.120697
	C333.862885,494.516357 335.967255,497.551300 340.217285,497.707733
	C344.509766,497.865662 346.896606,495.011536 348.491425,491.588287
	C353.026337,481.854340 353.042419,472.006104 348.359192,462.329956
	C346.816864,459.143402 344.457550,456.320709 340.423157,456.416687
	C336.237549,456.516205 333.885437,459.438690 332.297974,462.855865
	C328.971802,470.015717 328.373444,477.502502 330.370453,485.989319
M228.754074,453.494293
	C224.649353,450.907654 221.235672,451.864288 218.294373,455.483521
	C211.502075,463.841461 211.602661,481.936035 218.505981,490.088348
	C222.433090,494.725952 226.760406,494.688110 230.593018,489.982544
	C238.107025,480.757294 237.477631,462.793579 228.754074,453.494293
M185.266632,481.237305
	C190.100891,484.717743 194.912292,488.230743 199.787613,491.652710
	C200.831985,492.385773 202.198288,493.238708 203.286743,491.757904
	C203.960617,490.841095 203.502029,489.811676 202.617081,489.163788
	C196.611649,484.766998 190.597641,480.381622 184.554657,476.036713
	C183.684921,475.411346 182.610977,475.364532 181.900116,476.328613
	C181.194717,477.285248 181.564438,478.213470 182.396759,478.942688
	C183.142303,479.595917 183.930374,480.200623 185.266632,481.237305
M373.679810,497.526978
	C374.764648,501.207062 376.887177,498.834412 378.130859,497.989166
	C383.042450,494.650940 387.798279,491.078949 392.538971,487.497131
	C393.632935,486.670532 395.119263,485.746948 393.523987,482.761353
	C386.451477,486.836151 380.008362,491.619965 373.679810,497.526978
M209.143570,507.736420
	C204.260498,505.080231 186.867783,505.785706 184.051880,509.923279
	C192.120544,509.923279 199.430801,509.938873 206.740845,509.905365
	C207.760666,509.900696 208.693054,509.512878 209.143570,507.736420
M387.568939,513.476257
	C380.919128,513.858154 374.090515,512.246521 366.935150,514.712891
	C371.742706,518.260986 387.174500,518.410400 391.905121,515.468567
	C391.361969,513.580139 389.616943,513.922363 387.568939,513.476257
z"/>
</svg>
