<svg version="1.1" id="Layer_1" xmlns="http://www.w3.org/2000/svg" xmlns:xlink="http://www.w3.org/1999/xlink" x="0px" y="0px"
	 width="100%" viewBox="0 0 224 224" enable-background="new 0 0 224 224" xml:space="preserve">
<path fill="#000000" opacity="1.000000" stroke="none" 
	d="
M49.970634,170.867279 
	C48.711826,167.402283 47.605705,164.287354 46.424389,160.960648 
	C40.784294,162.372635 35.743565,165.118057 30.014675,165.472641 
	C23.075546,165.902161 20.179773,162.489655 22.195179,155.639328 
	C24.754969,146.938660 29.716797,139.323776 36.208900,133.476013 
	C44.827682,125.712646 48.669346,116.350906 51.544777,105.471848 
	C56.756466,85.753662 66.239899,68.344109 84.042023,56.729664 
	C89.365097,53.256794 95.504349,51.666428 101.191368,49.288422 
	C101.235023,46.713062 99.493050,45.389156 98.519997,43.716614 
	C96.713425,40.611328 95.516891,37.364281 95.828674,33.754837 
	C96.614944,24.652477 103.679070,20.646439 112.326080,24.625496 
	C115.206726,25.951073 117.036919,26.166042 119.758621,23.891392 
	C125.536980,19.062155 131.004425,21.297831 135.925262,30.101042 
	C140.701736,29.022802 145.459427,28.811680 148.441803,33.958996 
	C151.040665,38.444450 149.946014,43.089455 144.162262,52.361179 
	C144.190964,53.139847 144.703934,53.508759 145.352020,53.751720 
	C168.750839,62.523846 181.560196,80.582069 186.821426,103.862343 
	C189.532501,115.858528 192.901962,126.415260 202.635895,134.639053 
	C207.530487,138.774323 210.816193,144.705917 213.696533,150.569458 
	C214.787048,152.789444 215.799896,155.156219 216.237411,157.566910 
	C217.332642,163.601517 214.011414,166.774353 207.948410,165.945984 
	C202.155685,165.154556 196.798950,162.899490 190.828369,160.580276 
	C186.585373,182.945709 172.636169,195.997299 151.614395,202.539932 
	C154.801254,204.211151 157.294556,202.367172 159.917755,202.060684 
	C161.111328,201.921249 162.286667,201.750168 163.154236,202.772827 
	C164.121964,203.913574 163.661819,204.897629 162.677460,205.794830 
	C162.271530,206.164810 161.531815,206.170990 161.751938,207.190414 
	C162.675888,211.469101 162.619934,211.481186 158.121964,211.324219 
	C158.070450,212.807144 160.385223,214.320602 158.407913,215.687485 
	C156.612137,216.928879 155.188004,215.364716 154.066238,214.292542 
	C151.156906,211.511795 146.937866,209.863068 146.424576,204.942657 
	C146.217148,202.954239 144.240433,203.462875 142.731644,203.707718 
	C127.319420,206.208786 111.913345,206.190430 96.517235,203.542389 
	C93.634911,203.046646 91.970856,203.266144 90.905998,207.014160 
	C89.736290,211.131226 85.372147,213.423477 81.860260,215.930222 
	C81.170273,216.422729 80.272911,216.467270 79.533638,215.850647 
	C77.946930,214.527115 79.447479,213.135208 79.522903,211.776276 
	C78.051369,210.724731 75.528664,212.513153 74.738945,210.091965 
	C74.099258,208.130814 76.101593,207.747238 77.231949,206.769241 
	C76.135529,205.748306 73.877472,205.387817 74.829178,203.210449 
	C75.627380,201.384247 77.231560,201.959702 78.731522,202.190079 
	C81.212166,202.571060 83.580498,204.402115 86.769623,202.325333 
	C70.548767,196.465363 56.955921,187.700089 49.970634,170.867279 
M67.444313,187.065689 
	C73.092560,191.312134 79.284737,194.599991 86.053017,196.531860 
	C107.145935,202.552338 128.488953,202.835190 149.700256,197.640930 
	C171.624069,192.272202 184.226624,178.178207 186.917633,155.458633 
	C188.803314,139.538330 187.016769,123.863869 183.527557,108.436028 
	C173.441254,63.838585 142.955750,50.464161 105.693390,53.696976 
	C88.683136,55.172752 76.326782,65.628860 67.547966,79.942200 
	C54.070007,101.917221 48.986324,126.050011 50.205769,151.610580 
	C50.870995,165.554153 56.204292,177.396286 67.444313,187.065689 
M196.406265,134.157333 
	C194.886185,132.889709 193.799713,131.016495 191.263306,130.118927 
	C192.238602,135.836411 192.112534,140.992661 192.117447,146.138748 
	C192.127975,157.150467 192.356598,157.493301 203.213547,160.378372 
	C204.016479,160.591721 204.836609,160.778107 205.660599,160.866928 
	C207.541473,161.069656 209.708725,162.621399 211.200531,160.477875 
	C212.475891,158.645340 211.531021,156.591110 210.672714,154.775299 
	C207.155746,147.335068 202.413177,140.725632 196.406265,134.157333 
M35.153946,141.651108 
	C31.785868,146.194962 28.647543,150.886536 26.689728,156.232681 
	C25.573174,159.281616 26.476681,161.117065 30.071709,160.877365 
	C34.975475,160.550369 39.373463,158.595901 43.769352,156.636719 
	C45.392292,155.913406 45.665955,154.493469 45.663589,152.913620 
	C45.652252,145.351089 45.658501,137.788528 45.658501,129.281769 
	C41.962807,133.607162 38.771694,137.341995 35.153946,141.651108 
z"/>
<path fill="#000000" opacity="1.000000" stroke="none" 
	d="
M97.460464,117.752190 
	C99.680244,110.123886 112.494514,102.059761 120.008308,103.424385 
	C127.516762,104.788033 133.479034,108.933144 138.275223,114.725624 
	C140.892715,117.886848 140.401749,120.758202 136.904343,123.137596 
	C126.559563,130.175461 110.727760,129.869232 100.719528,122.377365 
	C99.229378,121.261871 97.868286,120.068924 97.460464,117.752190 
z"/>
<path fill="#000000" opacity="1.000000" stroke="none" 
	d="
M126.001648,136.040405 
	C129.182327,141.230087 131.602600,146.303558 131.294632,152.207611 
	C130.969254,158.445572 126.163979,161.227783 120.965340,157.812805 
	C118.230247,156.016144 116.234146,155.524216 113.436058,157.364212 
	C111.280693,158.781555 108.632996,159.039474 106.384415,157.416412 
	C103.959343,155.665970 103.637535,153.004593 104.095047,150.235687 
	C104.983231,144.860336 107.355309,140.124954 110.751320,135.951431 
	C115.435722,130.194519 120.633636,130.188187 126.001648,136.040405 
z"/>
<path fill="#000000" opacity="1.000000" stroke="none" 
	d="
M149.664642,113.481689 
	C145.030869,106.790718 146.893707,99.618134 153.185440,98.665619 
	C156.860916,98.109169 159.747787,99.435799 161.363266,102.868332 
	C163.194031,106.758347 162.499176,110.421371 159.456207,113.341690 
	C156.562500,116.118774 153.238754,116.075516 149.664642,113.481689 
z"/>
<path fill="#000000" opacity="1.000000" stroke="none" 
	d="
M75.734924,106.176636 
	C76.527824,102.098213 78.189743,99.231827 82.307518,98.699600 
	C85.831795,98.244095 88.429657,99.682785 90.100006,102.780525 
	C91.949364,106.210251 91.550171,109.477432 89.214584,112.527046 
	C87.154770,115.216583 84.299431,116.021790 81.234451,115.039650 
	C77.277519,113.771698 75.624756,110.670555 75.734924,106.176636 
z"/>
</svg>