<svg version="1.1" id="Layer_1" xmlns="http://www.w3.org/2000/svg" xmlns:xlink="http://www.w3.org/1999/xlink" x="0px" y="0px"
	 width="100%" viewBox="0 0 576 1024" enable-background="new 0 0 576 1024" xml:space="preserve">
<path fill="#000000" opacity="1.000000" stroke="none" 
	d="
M272.339600,738.915344 
	C265.127319,754.840088 252.166382,760.772461 236.018997,761.284668 
	C226.208771,761.595886 216.402924,761.885315 206.905441,758.289856 
	C198.463806,755.094116 191.510269,750.282593 187.488571,742.056580 
	C186.007889,739.027954 184.057800,738.228394 180.862259,738.091980 
	C167.678314,737.529419 155.158569,735.146423 144.889725,725.644653 
	C134.557968,716.084717 129.325333,704.211426 127.701363,690.574951 
	C124.477379,663.503235 130.399963,637.616272 138.470200,612.085327 
	C139.615829,608.460999 139.539780,605.645081 137.643326,602.236084 
	C132.182129,592.419189 135.170090,582.442444 138.228928,572.724915 
	C139.804932,567.718140 142.180222,563.417480 140.079727,557.550293 
	C138.199951,552.299622 139.830170,546.361267 141.850021,540.971008 
	C143.166412,537.458008 142.088074,535.849243 138.254410,535.337402 
	C109.700905,531.525635 92.515594,509.361664 90.924339,481.761078 
	C89.413078,455.548157 99.855804,433.323303 116.168831,413.615417 
	C131.143723,395.524048 148.447525,379.975800 168.909134,368.221680 
	C182.038391,360.679596 196.060913,357.490295 211.155518,360.603516 
	C213.078903,361.000183 214.764542,360.518738 216.440720,359.671967 
	C236.392258,349.592987 257.744232,345.247101 279.881805,343.560822 
	C308.420471,341.386993 336.154327,344.964661 362.675568,355.486542 
	C371.110626,358.832977 378.998779,360.282898 387.965424,359.684998 
	C401.903229,358.755615 413.895813,365.058990 425.082672,372.548828 
	C451.184784,390.024597 473.919250,410.911102 487.437164,439.875122 
	C496.798950,459.934082 500.121246,480.983459 491.222107,502.284363 
	C483.227203,521.420959 469.199738,533.187317 448.057800,535.380249 
	C445.300873,535.666138 444.254669,536.568909 444.965759,539.544250 
	C446.275360,545.023926 448.833923,550.721680 447.162537,556.194458 
	C444.969391,563.375916 447.707977,569.174561 449.645172,575.647583 
	C452.517303,585.244629 454.300293,595.226501 447.979950,604.511047 
	C446.729187,606.348511 447.147339,608.294373 447.807495,610.263367 
	C453.005493,625.767639 456.909210,641.606995 458.726959,657.851562 
	C460.339172,672.259155 461.067291,686.745300 457.056885,700.976990 
	C450.708771,723.504395 432.403961,737.778748 408.928406,738.092407 
	C403.964020,738.158813 400.918335,739.210693 398.332916,744.004944 
	C392.347015,755.104858 381.514618,759.588501 369.771210,760.821472 
	C358.911499,761.961609 347.804199,762.653076 337.073669,759.058350 
	C327.700806,755.918457 319.969330,750.818298 316.070862,741.254761 
	C315.298401,739.359802 314.294189,738.199158 312.077972,738.229065 
	C298.934570,738.406677 285.790344,738.525024 272.339600,738.915344 
M183.715530,476.450653 
	C184.854294,472.043823 187.323410,469.180542 192.240448,470.032837 
	C196.373489,470.749207 198.412445,475.104401 197.311691,480.454224 
	C196.844055,482.727020 196.044952,484.931641 195.396652,487.167267 
	C189.944550,505.968231 179.739014,521.235596 162.553055,531.299561 
	C161.096924,532.152283 159.703735,532.980347 159.081192,534.703857 
	C157.103241,540.179871 154.723526,545.512390 153.595612,551.281616 
	C153.130264,553.661804 153.654373,555.288757 155.563156,556.950012 
	C161.004883,561.686218 161.184753,563.914734 156.475296,569.434753 
	C151.111755,575.721375 148.707962,582.887329 149.060822,591.086426 
	C149.160248,593.396606 149.637573,595.250122 152.018311,596.342163 
	C156.634583,598.459839 157.010345,602.270020 155.402695,606.440674 
	C147.988922,625.674011 143.642136,645.625488 141.674286,666.081787 
	C140.486725,678.427124 141.116684,690.709961 145.503357,702.513306 
	C150.493301,715.939819 167.392609,725.511414 180.077591,722.017822 
	C180.034409,721.416321 180.118210,720.733337 179.923584,720.142090 
	C174.608170,703.993530 171.127823,687.354797 166.754288,670.955261 
	C165.394836,665.857727 167.542358,660.941223 171.617752,659.927979 
	C174.938187,659.102478 178.483505,661.981079 179.878784,666.921021 
	C182.728043,677.008728 185.449097,687.132629 188.240662,697.236755 
	C191.563080,709.262268 194.300247,721.485962 199.191864,733.006348 
	C201.409439,738.229065 204.810715,742.668152 211.388657,743.974487 
	C211.518829,741.420471 211.537827,739.273132 211.756332,737.146240 
	C212.157486,733.241516 214.742813,731.661987 218.312729,731.780579 
	C221.724396,731.893860 223.290421,734.050293 223.313431,737.406189 
	C223.326004,739.238647 223.362289,741.073181 223.464752,742.902405 
	C223.654465,746.289673 225.893463,746.704041 228.703873,746.710144 
	C231.820618,746.716919 232.856323,745.233215 232.662201,742.367371 
	C232.572311,741.040283 232.664291,739.701782 232.645477,738.368896 
	C232.587402,734.253662 234.332458,731.339600 238.656433,731.405334 
	C242.693634,731.466797 244.869675,734.068848 245.283661,738.162292 
	C245.492020,740.222534 244.576584,742.504333 246.590576,744.731506 
	C253.054260,742.667236 257.079102,738.458862 258.689911,731.715759 
	C260.026245,726.121582 259.632355,720.461975 259.815643,714.813049 
	C259.959625,710.374817 262.938690,707.241394 266.790680,707.151001 
	C270.326111,707.067932 273.020020,710.100952 273.336151,714.537476 
	C273.383514,715.201660 273.419067,715.872803 273.380096,716.536072 
	C273.116394,721.025146 274.695312,723.245911 279.711853,723.044128 
	C287.696472,722.722839 295.706177,723.080933 303.704529,723.031555 
	C312.654877,722.976318 312.653992,722.918030 313.690216,713.956665 
	C313.747528,713.460938 313.767212,712.951599 313.899597,712.475098 
	C314.859833,709.019897 316.991882,706.914307 320.731018,707.190735 
	C324.318420,707.455933 326.684906,709.345703 326.925568,713.131226 
	C327.094330,715.786011 326.967041,718.458862 326.999207,721.123291 
	C327.065765,726.631775 326.919250,732.232117 330.223907,737.032349 
	C332.843597,740.837585 335.744537,744.435974 341.269135,744.496338 
	C341.717224,741.301025 341.930389,738.489441 342.539459,735.766479 
	C343.291992,732.402161 345.991119,731.355225 349.022736,731.590759 
	C352.179901,731.836060 354.266785,733.555481 354.349823,737.047791 
	C354.397308,739.044617 354.458801,741.045288 354.633087,743.033813 
	C354.852661,745.538574 355.982422,747.052795 358.824310,746.748657 
	C361.516846,746.460510 363.844360,745.949768 363.700378,742.458496 
	C363.631775,740.795654 363.708984,739.126221 363.738403,737.460083 
	C363.800568,733.940369 365.343750,731.761047 369.087891,731.594788 
	C372.595825,731.439087 374.698242,732.893738 375.423035,736.518311 
	C375.889282,738.850037 375.444611,741.518738 377.443817,743.687378 
	C384.362793,740.830811 387.614777,735.086121 389.575256,728.614319 
	C393.964569,714.124634 398.411682,699.646912 401.902283,684.896545 
	C403.396210,678.583801 405.192657,672.336243 407.048035,666.117676 
	C408.390137,661.619263 412.528931,658.686707 415.976105,659.904175 
	C419.938782,661.303772 421.826477,664.515381 420.841461,668.606140 
	C418.349182,678.956421 415.606262,689.247925 412.851379,699.532837 
	C410.796936,707.202637 408.567017,714.825378 406.392334,722.550537 
	C421.887146,724.273926 436.535492,715.738281 441.517853,701.876160 
	C445.510468,690.767822 446.318604,679.167969 445.334595,667.408386 
	C443.586761,646.519958 438.785614,626.353455 431.469879,606.739746 
	C429.893280,602.512878 430.678009,598.680847 434.974670,596.509216 
	C437.562561,595.201172 437.902985,593.315979 437.887573,590.809021 
	C437.840118,583.070190 436.122070,575.999084 430.792908,570.038940 
	C427.811890,566.705017 425.762451,562.554810 429.757599,559.004150 
	C434.064392,555.176514 434.034393,551.219482 432.358032,546.464111 
	C431.252441,543.327942 430.271698,540.127808 429.532288,536.888550 
	C428.914154,534.180603 427.330811,532.489868 424.990692,531.310913 
	C412.732269,525.135315 404.349457,515.126709 398.084015,503.300873 
	C393.716461,495.057220 390.156616,486.400146 389.495575,476.887665 
	C389.229553,473.059906 391.342743,470.973175 394.852203,470.192596 
	C398.362885,469.411713 400.641479,471.194275 401.993408,474.226654 
	C402.802795,476.042114 403.359222,477.984375 403.887634,479.908569 
	C405.879028,487.160248 408.038300,494.401642 412.198059,500.714691 
	C420.292603,512.999207 430.542328,522.050720 446.548096,520.695984 
	C461.648438,519.417969 471.972778,511.051422 477.674194,497.448425 
	C484.520172,481.114624 482.411804,464.593079 475.648376,448.865662 
	C463.179596,419.871094 440.555237,399.847260 414.777985,383.113617 
	C402.905914,375.406677 389.989380,370.745911 375.555573,376.448242 
	C374.276672,376.953491 372.940063,376.243164 371.759918,375.575256 
	C356.288879,366.819427 339.424866,362.509857 321.997437,360.034576 
	C287.426147,355.124329 253.880844,358.416168 221.844513,372.964844 
	C216.657196,375.320526 211.870132,378.498413 206.132355,374.497253 
	C205.422150,374.002014 204.179382,374.284485 203.186401,374.178528 
	C194.047302,373.203400 185.339539,375.349884 177.745575,379.952209 
	C149.201340,397.251373 124.677658,418.756805 110.807755,449.982117 
	C103.890808,465.554199 102.549858,482.013824 109.461342,498.077057 
	C120.478477,523.682373 153.844833,529.695435 170.567764,506.208862 
	C176.875473,497.350037 180.948792,487.661316 183.715530,476.450653 
z"/>
<path fill="#000000" opacity="1.000000" stroke="none" 
	d="
M277.027740,498.365753 
	C276.482117,491.027039 278.813599,487.563477 285.442902,486.100647 
	C290.308838,485.026917 295.241547,484.393860 300.258423,485.680359 
	C304.660339,486.809174 308.603760,488.449310 309.939575,493.244812 
	C311.338531,498.266998 308.496582,501.836182 305.302490,505.167511 
	C303.712524,506.825806 301.212463,507.397461 299.974182,509.461670 
	C303.827484,515.675354 307.973877,517.499084 314.479126,515.419189 
	C317.906616,514.323303 320.424194,515.276428 322.320557,517.958069 
	C324.338135,520.811096 322.963928,523.555481 320.992371,525.651855 
	C316.417114,530.516602 309.987030,531.518921 304.960083,528.404114 
	C296.664062,523.263672 289.784576,523.554810 281.567139,528.436951 
	C276.980713,531.161865 271.033051,530.022888 266.756866,525.876648 
	C264.624939,523.809570 262.499725,521.242493 264.629547,517.968933 
	C266.605621,514.931702 269.420685,513.943359 272.839233,515.593262 
	C277.270325,517.731812 280.868073,515.985352 284.314697,513.274902 
	C286.840485,511.288605 287.335632,509.494568 284.238800,507.506409 
	C280.945343,505.391968 278.403503,502.569702 277.027740,498.365753 
z"/>
<path fill="#000000" opacity="1.000000" stroke="none" 
	d="
M326.426086,481.616638 
	C328.760284,473.714600 335.432312,468.431030 342.058685,468.935028 
	C348.775055,469.445923 355.065247,475.198151 356.177429,481.781799 
	C357.287018,488.350220 354.219269,493.085846 349.316467,496.786377 
	C344.884796,500.131287 340.046936,500.104462 335.278625,497.329102 
	C329.422150,493.920410 325.710968,489.211273 326.426086,481.616638 
z"/>
<path fill="#000000" opacity="1.000000" stroke="none" 
	d="
M255.366470,494.391663 
	C246.078339,501.334564 238.400818,500.147003 232.761673,491.193115 
	C228.499954,484.426392 231.765656,474.545563 239.596741,470.512695 
	C245.148300,467.653778 252.074677,469.092407 256.292542,473.980347 
	C260.880402,479.297211 261.516968,486.210846 257.859894,491.447266 
	C257.196289,492.397491 256.381622,493.242188 255.366470,494.391663 
z"/>
</svg>